{"title":"Power Ranges Forever Red DVD RIP (2002)","uid":8783794,"size":245872981,"categoryP":"video","categoryS":"tv_shows","magnet":"?xt=urn:btih:5ad61e6e661af0616ce250ed56a4e58b5af83608&amp;dn=Power+Ranges+Forever+Red+DVD+RIP+%282002%29&amp;tr=udp%3A%2F%2Ftracker.openbittorrent.com%3A80&amp;tr=udp%3A%2F%2Fopen.demonii.com%3A1337&amp;tr=udp%3A%2F%2Ftracker.coppersurfer.tk%3A6969&amp;tr=udp%3A%2F%2Fexodus.desync.com%3A6969","seeders":2,"leechers":0,"uploader":"jmanwf","files":1,"time":1375774839,"description":"\nPower Rangers Wild Force\n\n\nStoryline\n\nSome of King Mondo's generals survived. They're preparing to attack Earth again. Andros (Power Rangers in Space) finds out about the impending attack, and contact Tommy. Tommy gathers all the Red Rangers from the past decade stop them.\n\n\n\nALL 10 Red Rangers\n\n\n\n\n\nFormat: MP4\n\n\nFormat                                   : MPEG-4\nFormat profile                           : Base Media / Version 2\nCodec ID                                 : mp42\nFile size                                : 1.81 MiB\nDuration                                 : 10s 27ms\nOverall bit rate mode                    : Variable\nOverall bit rate                         : 1 518 Kbps\nEncoded date                             : UTC 2013-08-06 05:17:17\nTagged date                              : UTC 2013-08-06 05:17:37\nWriting application                      : HandBrake 0.9.9 2013052900\n\nVideo\nID                                       : 1\nFormat                                   : AVC\nFormat/Info                              : Advanced Video Codec\nFormat profile                           : &lt;a class=&quot;__cf_email__&quot; href=&quot;/cdn-cgi/l/email-protection&quot; data-cfemail=&quot;7c34151b143c3048524d&quot;&gt;[email&amp;#160;protected]&lt;/a&gt;&lt;script cf-hash='f9e31' type=&quot;text/javascript&quot;&gt;\n/* &lt;![CDATA[ */!function(){try{var t=&quot;currentScript&quot;in document?document.currentScript:function(){for(var t=document.getElementsByTagName(&quot;script&quot;),e=t.length;e--;)if(t[e].getAttribute(&quot;cf-hash&quot;))return t[e]}();if(t&amp;&amp;t.previousSibling){var e,r,n,i,c=t.previousSibling,a=c.getAttribute(&quot;data-cfemail&quot;);if(a){for(e=&quot;&quot;,r=parseInt(a.substr(0,2),16),n=2;a.length-n;n+=2)i=parseInt(a.substr(n,2),16)^r,e+=String.fromCharCode(i);e=document.createTextNode(e),c.parentNode.replaceChild(e,c)}}}catch(u){}}();/* ]]&gt; */&lt;/script&gt;\nFormat settings, CABAC                   : Yes\nFormat settings, ReFrames                : 4 frames\nCodec ID                                 : avc1\nCodec ID/Info                            : Advanced Video Coding\nDuration                                 : 9s 960ms\nBit rate mode                            : Variable\nBit rate                                 : 1 361 Kbps\nWidth                                    : 720 pixels\nHeight                                   : 544 pixels\nDisplay aspect ratio                     : 4:3\nFrame rate mode                          : Constant\nFrame rate                               : 25.000 fps\nColor space                              : YUV\nChroma subsampling                       : 4:2:0\nBit depth                                : 8 bits\nScan type                                : Progressive\nBits/(Pixel*Frame)                       : 0.139\nStream size                              : 1.62 MiB (89%)\nWriting library                          : x264 core 130 r2273 b3065e6\nEncoding settings                        : cabac=1 // deblock=1:0:0 / \nEncoded date                             : UTC 2013-08-06 05:17:17\nTagged date                              : UTC 2013-08-06 05:17:37\nColor primaries                          : BT.601 PAL\nTransfer characteristics                 : BT.709\nMatrix coefficients                      : BT.601\n\nAudio\nID                                       : 2\nFormat                                   : AAC\nFormat/Info                              : Advanced Audio Codec\nFormat profile                           : LC\nCodec ID                                 : 40\nDuration                                 : 10s 27ms\nBit rate mode                            : Variable\nBit rate                                 : 160 Kbps\nMaximum bit rate                         : 175 Kbps\nChannel(s)                               : 2 channels\nChannel positions                        : Front: L R\nSampling rate                            : 48.0 KHz\nCompression mode                         : Lossy\nDelay relative to video                  : 80ms\nStream size                              : 196 KiB (11%)\nLanguage                                 : English\nEncoded date                             : UTC 2013-08-06 05:17:17\nTagged date                              : UTC 2013-08-06 05:17:3","torrent":{"xt":"urn:btih:5ad61e6e661af0616ce250ed56a4e58b5af83608","amp;dn":"Power+Ranges+Forever+Red+DVD+RIP+%282002%29","amp;tr":["udp%3A%2F%2Ftracker.openbittorrent.com%3A80","udp%3A%2F%2Fopen.demonii.com%3A1337","udp%3A%2F%2Ftracker.coppersurfer.tk%3A6969","udp%3A%2F%2Fexodus.desync.com%3A6969"],"infoHash":"5ad61e6e661af0616ce250ed56a4e58b5af83608","infoHashBuffer":{"type":"Buffer","data":[90,214,30,110,102,26,240,97,108,226,80,237,86,164,229,139,90,248,54,8]},"announce":[],"urlList":[]}}